<?xml version="1.0" encoding="UTF-8"?>
<svg xmlns="http://www.w3.org/2000/svg" viewBox="0 0 37 37" width="35" height="35">
  <title>
    Vault Run — Player Token
  </title>
  <defs>
    <symbol id="truck-icon" viewBox="0 0 640 640">
      <!-- Font Awesome Free: truck -->
      <path d="M32 160C32 124.7 60.7 96 96 96L384 96C419.3 96 448 124.7 448 160L448 192 L498.7 192C515.7 192 532 198.7 544 210.7L589.3 256C601.3 268 608 284.3 608 301.3L608 448 C608 483.3 579.3 512 544 512L540.7 512C530.3 548.9 496.3 576 456 576C415.7 576 381.8 548.9 371.3 512L268.7 512C258.3 548.9 224.3 576 184 576C143.7 576 109.8 548.9 99.3 512 L96 512C60.7 512 32 483.3 32 448L32 160zM544 352L544 301.3L498.7 256L448 256L448 352 L544 352zM224 488C224 465.9 206.1 448 184 448C161.9 448 144 465.9 144 488C144 510.1 161.9 528 184 528C206.1 528 224 510.1 224 488zM456 528C478.1 528 496 510.1 496 488 C496 465.9 478.1 448 456 448C433.9 448 416 465.9 416 488C416 510.1 433.9 528 456 528z"/>
    </symbol>
  </defs>
  <circle cx="18.5" cy="18.5" r="17.5" fill="#C0392B" stroke="white" stroke-width="1.5"/>
  <use href="#truck-icon" width="640" height="640" transform="translate(7.56,7.02) scale(0.0342)" style="fill:#F5F2EA"/>
</svg>