<?xml version="1.0" encoding="UTF-8"?>
<svg xmlns="http://www.w3.org/2000/svg" viewBox="0 0 1300 1220" width="1300" height="1220">
  <title>
    Vault Run — Board Game
  </title>
  <!-- Generated by generate-board.js - edit the source and re-run: node generate-board.js -->
  <defs>
    <style>
      
      /* Base */
      text { font-family: 'Helvetica Neue', Arial, 'Liberation Sans', sans-serif; }
      /* ── Shape classes ──────────────────────────────────────── */
      .svg-bg        { fill: #06101E; }
      .board-frame   { fill: #1E3A5F; }
      .board-surface { fill: #F5F2EA; }
      .field-bg      { fill: #F5F2EA; }
      .field-border  { fill: none; stroke: #B8A88A; stroke-width: 1; }
      .corner-bg     { fill: #0A1628;   stroke: #1E3A5F;  stroke-width: 1.5; }
      .strip-pickup  { fill: #C8941F; }
      .strip-deposit { fill: #1A4F8A; }
      .strip-chance  { fill: #7B1010; }
      .garage-inner  { fill: #091520; stroke: #D4AF37; stroke-width: 1.5; }
      .corner-strip  { fill: #152438; }
      .corner-border { fill: none; stroke: #1E3A5F; stroke-width: 1.5; }
      .center-area   { fill: #0A1628; }
      .divider       { fill: none; stroke: #B8A88A;  stroke-width: 0.5; }
      .center-border { fill: none; stroke: #D4AF37; stroke-width: 1.5; }
      .center-deco   { fill: none; stroke: #D4AF37; stroke-width: 0.4; opacity: 0.5; }
      .center-rule   { fill: none; stroke: #D4AF37; stroke-width: 0.8; opacity: 0.6; }
      .corner-icon        { fill: #D4AF37; }
      .corner-icon-dimmed { fill: #D4AF37; opacity: 0.4; }
      /* ── Text classes ───────────────────────────────────────── */
      .t-field-name  { font-size: 14.5px; font-weight: 700; fill: #0A1628; }
      .t-label       { font-size: 7.5px;                    fill: #6B7280; }
      .t-amount      { font-size: 9.5px;  font-weight: 600; fill: #1A4F8A; }
      .t-corner-label { font-size: 17px;  font-weight: 700; fill: #D4AF37; }
      .t-corner-sub   { font-size: 10px;                   fill: #8FB3D4;  font-style: italic; }
      .t-chance      { font-size: 13px;   font-weight: 800; fill: #7B1010;      letter-spacing: 2px; }
      .t-chance-wm   { font-size: 64px;   font-weight: 900; fill: #7B1010;      opacity: 0.15; }
      .t-center-h1   { font-size: 52px;   font-weight: 900; fill: #D4AF37; letter-spacing: 6px; }
      .t-center-sub  { font-size: 16px;                     fill: #8FB3D4;  letter-spacing: 2px; }
      .t-center-hint { font-size: 11px;                     fill: #8FB3D4;  opacity: 0.6; }
      .player-token  { /* glow handled via stroke on circle */ }
      /* ── Measurement annotations (measured SVG only) ────────── */
      .dim-line  { stroke: #5B8DB8; stroke-width: 0.8; fill: none; }
      .dim-ext   { stroke: #5B8DB8; stroke-width: 0.6; fill: none; stroke-dasharray: 4 2; }
      .dim-label { font-size: 10px; font-weight: 600; fill: #5B8DB8; }
      .dim-bg    { fill: #ffffff; opacity: 0.85; }
    </style>
    <symbol id="truck-icon" viewBox="0 0 640 640">
      <!-- Font Awesome Free: truck -->
      <path d="M32 160C32 124.7 60.7 96 96 96L384 96C419.3 96 448 124.7 448 160L448 192 L498.7 192C515.7 192 532 198.7 544 210.7L589.3 256C601.3 268 608 284.3 608 301.3L608 448 C608 483.3 579.3 512 544 512L540.7 512C530.3 548.9 496.3 576 456 576C415.7 576 381.8 548.9 371.3 512L268.7 512C258.3 548.9 224.3 576 184 576C143.7 576 109.8 548.9 99.3 512 L96 512C60.7 512 32 483.3 32 448L32 160zM544 352L544 301.3L498.7 256L448 256L448 352 L544 352zM224 488C224 465.9 206.1 448 184 448C161.9 448 144 465.9 144 488C144 510.1 161.9 528 184 528C206.1 528 224 510.1 224 488zM456 528C478.1 528 496 510.1 496 488 C496 465.9 478.1 448 456 448C433.9 448 416 465.9 416 488C416 510.1 433.9 528 456 528z"/>
    </symbol>
    <marker id="dim-arrow" markerWidth="6" markerHeight="6" refX="5" refY="3" orient="auto-start-reverse">
      <path d="M0,0 L0,6 L6,3 z" fill="#5B8DB8"/>
    </marker>
  </defs>
  <!-- ═══ Board background ═══ -->
  <rect x="0" y="0" width="1300" height="1220" class="svg-bg"/>
  <rect x="54" y="54" width="1092" height="1092" class="board-frame" rx="8"/>
  <rect x="60" y="60" width="1080" height="1080" class="board-surface" rx="4"/>
  <!-- ═══ Corner fields ═══ -->
  <g id="field-1">
    <rect x="960" y="960" width="180" height="180" class="corner-bg"/>
    <rect x="960" y="1080" width="180" height="60" class="corner-strip"/>
    <rect x="960" y="960" width="180" height="180" class="field-border"/>
    <g transform="translate(1019,976) scale(0.096875)">
      <!-- FA: arrows-left-right -->
      <path d="M502.6 438.6L598.6 342.6C611.1 330.1 611.1 309.8 598.6 297.3L502.6 201.3C490.1 188.8 469.8 188.8 457.3 201.3C444.8 213.8 444.8 234.1 457.3 246.6L498.7 288L141.2 288L182.6 246.6C195.1 234.1 195.1 213.8 182.6 201.3C170.1 188.8 149.8 188.8 137.3 201.3L41.3 297.3C35.3 303.3 31.9 311.4 31.9 319.9C31.9 328.4 35.3 336.5 41.3 342.5L137.3 438.5C149.8 451 170.1 451 182.6 438.5C195.1 426 195.1 405.7 182.6 393.2L141.2 351.8L498.7 351.8L457.3 393.2C444.8 405.7 444.8 426 457.3 438.5C469.8 451 490.1 451 502.6 438.5z" class="corner-icon"/>
    </g>
    <text x="1050" y="1054" class="t-corner-label" text-anchor="middle">
      Start
    </text>
  </g>
  <g id="field-6">
    <rect x="60" y="960" width="180" height="180" class="corner-bg"/>
    <rect x="60" y="1080" width="180" height="60" class="corner-strip"/>
    <rect x="60" y="960" width="180" height="180" class="field-border"/>
    <g transform="translate(119,976) scale(0.096875)">
      <!-- FA: car-wrench -->
      <path d="M96.3 416L96.3 544C96.3 561.7 110.6 576 128.3 576L144.3 576C162 576 176.3 561.7 176.3 544L176.3 512L464.3 512L464.3 544C464.3 561.7 478.6 576 496.3 576L512.3 576C530 576 544.3 561.7 544.3 544L544.3 416C544.3 392 531.1 371.1 511.5 360.1L510.2 356.7L473.9 259.8C462.2 228.6 432.3 207.9 399 207.9L241.5 207.9C208.2 207.9 178.3 228.6 166.6 259.8L130.3 356.7L129 360.1C109.6 371.1 96.3 392 96.3 416zM224.3 432 C224.3 449.7 210 464 192.3 464C174.6 464 160.3 449.7 160.3 432C160.3 414.3 174.6 400 192.3 400C210 400 224.3 414.3 224.3 432zM200.5 352L226.6 282.4C228.9 276.2 234.9 272 241.6 272L399.1 272C405.8 272 411.7 276.1 414.1 282.4L440.2 352L200.6 352zM480.3 432 C480.3 449.7 466 464 448.3 464C430.6 464 416.3 449.7 416.3 432C416.3 414.3 430.6 400 448.3 400C466 400 480.3 414.3 480.3 432z"   class="corner-icon-dimmed"/>
      <path d="M217.7 144C205.4 172.3 177.2 192 144.4 192C108.6 192 78.3 168.5 68.1 136 L136.4 136C149.6 136 160.3 125.4 160.4 112.2L160.4 111.8C160.2 98.6 149.5 88 136.3 88 L68 88C78.2 55.5 108.5 32 144.3 32C177.1 32 205.3 51.7 217.6 80L423 80C435.3 51.7 463.5 32 496.3 32C532.1 32 562.4 55.5 572.6 88L504.3 88C491.1 88 480.4 98.7 480.3 111.9L480.3 112.1C480.4 125.3 491.1 136 504.3 136L572.6 136C562.4 168.5 532.1 192 496.3 192C463.5 192 435.3 172.3 423 144L217.7 144z" class="corner-icon"/>
    </g>
    <text x="150" y="1054" class="t-corner-label" text-anchor="middle">
      Garage
    </text>
  </g>
  <g id="field-11">
    <rect x="60" y="60" width="180" height="180" class="corner-bg"/>
    <rect x="60" y="180" width="180" height="60" class="corner-strip"/>
    <rect x="60" y="60" width="180" height="180" class="field-border"/>
    <g transform="translate(119,76) scale(0.096875)">
      <!-- FA: face-sleeping -->
      <path d="M532 24C532 13 541 4 552 4L616 4C623.7 4 630.7 8.4 634 15.3C637.3 22.2 636.4 30.5 631.6 36.5L593.6 84L616 84C627 84 636 93 636 104C636 115 627 124 616 124L552 124 C544.3 124 537.3 119.6 534 112.7C530.7 105.8 531.6 97.5 536.4 91.5L574.4 44L552 44 C541 44 532 35 532 24zM388 120C388 109 397 100 408 100L472 100C479.7 100 486.7 104.4 490 111.3C493.3 118.2 492.4 126.5 487.6 132.5L449.6 180L472 180C483 180 492 189 492 200C492 211 483 220 472 220L408 220C400.3 220 393.3 215.6 390 208.7C386.7 201.8 387.6 193.5 392.4 187.5L430.4 140L408 140C397 140 388 131 388 120zM364.4 67.8C349.5 80.3 340 99 340 120C340 135 344.8 148.8 353 160C338.3 180.2 335.8 206.8 346.7 229.5C358 253.1 381.8 268 408 268L472 268C509.6 268 540 237.6 540 200C540 195.5 539.6 191.2 538.7 186.9C562.3 225.7 576 271.2 576 320C576 461.4 461.4 576 320 576C178.6 576 64 461.4 64 320C64 178.6 178.6 64 320 64C335.1 64 350 65.3 364.4 67.8zM196 344C196 333 187 324 176 324C165 324 156 333 156 344C156 377.1 182.9 404 216 404L232 404C265.1 404 292 377.1 292 344C292 333 283 324 272 324C261 324 252 333 252 344C252 355 243 364 232 364L216 364C205 364 196 355 196 344zM408 364C397 364 388 355 388 344C388 333 379 324 368 324C357 324 348 333 348 344C348 377.1 374.9 404 408 404L424 404C457.1 404 484 377.1 484 344C484 333 475 324 464 324C453 324 444 333 444 344C444 355 435 364 424 364 L408 364zM360 480C360 457.9 342.1 440 320 440C297.9 440 280 457.9 280 480C280 502.1 297.9 520 320 520C342.1 520 360 502.1 360 480z" class="corner-icon"/>
    </g>
    <text x="150" y="154" class="t-corner-label" text-anchor="middle">
      Take a Break
    </text>
  </g>
  <g id="field-16">
    <rect x="960" y="60" width="180" height="180" class="corner-bg"/>
    <rect x="960" y="180" width="180" height="60" class="corner-strip"/>
    <rect x="960" y="60" width="180" height="180" class="field-border"/>
    <g transform="translate(1019,76) scale(0.096875)">
      <!-- FA: car-burst -->
      <path d="M232 80.1L232 32.1C232 18.8 221.3 8.1 208 8.1C194.7 8.1 184 18.8 184 32.1L184 80.1C184 93.4 194.7 104.1 208 104.1C221.3 104.1 232 93.4 232 80.1zM32 232.1L80 232.1 C93.3 232.1 104 221.4 104 208.1C104 194.8 93.3 184.1 80 184.1L32 184.1C18.7 184.1 8 194.8 8 208.1C8 221.4 18.7 232.1 32 232.1zM281.5 134.6C290.9 144 306.1 144 315.4 134.6L349.3 100.7C358.7 91.3 358.7 76.1 349.3 66.8C339.9 57.5 324.7 57.4 315.4 66.8 L281.5 100.6C272.1 110 272.1 125.2 281.5 134.5zM100.5 349.6L134.4 315.7C143.8 306.3 143.8 291.1 134.4 281.8C125 272.5 109.8 272.4 100.5 281.8L66.6 315.6C57.2 325 57.2 340.2 66.6 349.5C76 358.8 91.2 358.9 100.5 349.5zM66.6 66.7C57.2 76.1 57.2 91.3 66.6 100.6L100.5 134.5C109.9 143.9 125.1 143.9 134.4 134.5C143.7 125.1 143.8 109.9 134.4 100.6L100.5 66.7C91.1 57.3 76 57.3 66.6 66.7zM352.9 239.4L505 280.2C511.4 281.9 516.1 287.5 516.8 294.1L524 368.1L292.5 306.1L335.7 245.6C339.6 240.2 346.4 237.7 352.9 239.4zM223.6 292.5L221.5 295.4C199.8 300.9 181.6 317.7 175.4 340.9C171.3 356.4 163 387.3 150.6 433.6L142.3 464.5C137.7 481.6 147.9 499.1 164.9 503.7L180.4 507.8 C197.5 512.4 215 502.2 219.6 485.2L227.9 454.3L506.1 528.8L497.8 559.7C493.2 576.8 503.4 594.3 520.4 598.9L535.9 603C553 607.6 570.5 597.4 575.1 580.4C579.2 564.9 587.5 534 599.9 487.7L608.2 456.8C614.4 433.6 607.1 410 591 394.3L590.7 390.7L580.7 287.7 C577.5 254.5 554 226.8 521.8 218.2L369.5 177.6C337.3 169 303.1 181.2 283.7 208.4 L223.5 292.6zM272.3 350.3C283.5 353.1 292.3 361.7 295.4 372.9C298.4 384.1 295.2 396 287 404.1C278.8 412.2 266.8 415.3 255.7 412.1C244.5 409.3 235.7 400.7 232.6 389.5 C229.6 378.3 232.8 366.4 241 358.3C249.2 350.2 261.2 347.1 272.3 350.3zM480.4 439.2 C483.2 428 491.8 419.2 503 416.1C514.2 413.1 526.1 416.3 534.2 424.5C542.3 432.7 545.4 444.7 542.2 455.8C539.4 467 530.8 475.8 519.6 478.9C508.4 481.9 496.5 478.7 488.4 470.5C480.3 462.3 477.2 450.3 480.4 439.2z" class="corner-icon"/>
    </g>
    <text x="1050" y="154" class="t-corner-label" text-anchor="middle">
      Truck Broke
    </text>
  </g>
  <!-- ═══ Bottom row (right to left) ═══ -->
  <g id="field-2" transform="rotate(0,870,1050)">
    <rect x="780" y="960" width="180" height="180" class="field-bg"/>
    <rect x="780" y="1080" width="180" height="60" class="strip-pickup"/>
    <rect x="780" y="960" width="180" height="180" class="field-border"/>
    <text x="870" y="991.5" class="t-field-name" text-anchor="middle">
      Penny Lane
    </text>
    <text x="870" y="1008.5" class="t-field-name" text-anchor="middle">
      Kiosk
    </text>
    <line x1="790" y1="1030" x2="950" y2="1030" class="divider"/>
    <line x1="870" y1="1034" x2="870" y2="1070" class="divider"/>
    <text x="830" y="1046" class="t-label"  text-anchor="middle">
      Contract
    </text>
    <text x="830" y="1060" class="t-amount" text-anchor="middle">
      € 80,000
    </text>
    <text x="910" y="1046" class="t-label"  text-anchor="middle">
      PICKUP
    </text>
    <text x="910" y="1060" class="t-amount" text-anchor="middle">
      € 15,000
    </text>
  </g>
  <g id="field-3" transform="rotate(0,690,1050)">
    <rect x="600" y="960" width="180" height="180" class="field-bg"/>
    <rect x="600" y="1080" width="180" height="60" class="strip-deposit"/>
    <rect x="600" y="960" width="180" height="180" class="field-border"/>
    <text x="690" y="991.5" class="t-field-name" text-anchor="middle">
      Union Savings
    </text>
    <text x="690" y="1008.5" class="t-field-name" text-anchor="middle">
      Bank
    </text>
    <line x1="610" y1="1030" x2="770" y2="1030" class="divider"/>
    <line x1="690" y1="1034" x2="690" y2="1070" class="divider"/>
    <text x="650" y="1046" class="t-label"  text-anchor="middle">
      Contract
    </text>
    <text x="650" y="1060" class="t-amount" text-anchor="middle">
      € 180,000
    </text>
    <text x="730" y="1046" class="t-label"  text-anchor="middle">
      DEPOSIT
    </text>
    <text x="730" y="1060" class="t-amount" text-anchor="middle">
      € 40,000
    </text>
  </g>
  <g id="field-4" transform="rotate(0,510,1050)">
    <rect x="420" y="960" width="180" height="180" class="field-bg"/>
    <rect x="420" y="1080" width="180" height="60" class="strip-pickup"/>
    <rect x="420" y="960" width="180" height="180" class="field-border"/>
    <text x="510" y="991.5" class="t-field-name" text-anchor="middle">
      Night Owl
    </text>
    <text x="510" y="1008.5" class="t-field-name" text-anchor="middle">
      Supermarket
    </text>
    <line x1="430" y1="1030" x2="590" y2="1030" class="divider"/>
    <line x1="510" y1="1034" x2="510" y2="1070" class="divider"/>
    <text x="470" y="1046" class="t-label"  text-anchor="middle">
      Contract
    </text>
    <text x="470" y="1060" class="t-amount" text-anchor="middle">
      € 120,000
    </text>
    <text x="550" y="1046" class="t-label"  text-anchor="middle">
      PICKUP
    </text>
    <text x="550" y="1060" class="t-amount" text-anchor="middle">
      € 25,000
    </text>
  </g>
  <g id="field-5" transform="rotate(0,330,1050)">
    <rect x="240" y="960" width="180" height="180" class="field-bg"/>
    <rect x="240" y="1080" width="180" height="60" class="strip-chance"/>
    <rect x="240" y="960" width="180" height="180" class="field-border"/>
    <text x="330" y="1058" class="t-chance-wm" text-anchor="middle">
      ?
    </text>
    <text x="330" y="1004" class="t-chance"    text-anchor="middle">
      CHANCE
    </text>
  </g>
  <!-- ═══ Left column (bottom to top) ═══ -->
  <g id="field-7" transform="rotate(90,150,870)">
    <rect x="60" y="780" width="180" height="180" class="field-bg"/>
    <rect x="60" y="900" width="180" height="60" class="strip-pickup"/>
    <rect x="60" y="780" width="180" height="180" class="field-border"/>
    <text x="150" y="811.5" class="t-field-name" text-anchor="middle">
      City Mall
    </text>
    <text x="150" y="828.5" class="t-field-name" text-anchor="middle">
      Cash Desk
    </text>
    <line x1="70" y1="850" x2="230" y2="850" class="divider"/>
    <line x1="150" y1="854" x2="150" y2="890" class="divider"/>
    <text x="110" y="866" class="t-label"  text-anchor="middle">
      Contract
    </text>
    <text x="110" y="880" class="t-amount" text-anchor="middle">
      € 160,000
    </text>
    <text x="190" y="866" class="t-label"  text-anchor="middle">
      PICKUP
    </text>
    <text x="190" y="880" class="t-amount" text-anchor="middle">
      € 35,000
    </text>
  </g>
  <g id="field-8" transform="rotate(90,150,690)">
    <rect x="60" y="600" width="180" height="180" class="field-bg"/>
    <rect x="60" y="720" width="180" height="60" class="strip-pickup"/>
    <rect x="60" y="600" width="180" height="180" class="field-border"/>
    <text x="150" y="631.5" class="t-field-name" text-anchor="middle">
      Lucky Dragon
    </text>
    <text x="150" y="648.5" class="t-field-name" text-anchor="middle">
      Casino
    </text>
    <line x1="70" y1="670" x2="230" y2="670" class="divider"/>
    <line x1="150" y1="674" x2="150" y2="710" class="divider"/>
    <text x="110" y="686" class="t-label"  text-anchor="middle">
      Contract
    </text>
    <text x="110" y="700" class="t-amount" text-anchor="middle">
      € 260,000
    </text>
    <text x="190" y="686" class="t-label"  text-anchor="middle">
      PICKUP
    </text>
    <text x="190" y="700" class="t-amount" text-anchor="middle">
      € 60,000
    </text>
  </g>
  <g id="field-9" transform="rotate(90,150,510)">
    <rect x="60" y="420" width="180" height="180" class="field-bg"/>
    <rect x="60" y="540" width="180" height="60" class="strip-deposit"/>
    <rect x="60" y="420" width="180" height="180" class="field-border"/>
    <text x="150" y="451.5" class="t-field-name" text-anchor="middle">
      Market Square
    </text>
    <text x="150" y="468.5" class="t-field-name" text-anchor="middle">
      Bank
    </text>
    <line x1="70" y1="490" x2="230" y2="490" class="divider"/>
    <line x1="150" y1="494" x2="150" y2="530" class="divider"/>
    <text x="110" y="506" class="t-label"  text-anchor="middle">
      Contract
    </text>
    <text x="110" y="520" class="t-amount" text-anchor="middle">
      € 220,000
    </text>
    <text x="190" y="506" class="t-label"  text-anchor="middle">
      DEPOSIT
    </text>
    <text x="190" y="520" class="t-amount" text-anchor="middle">
      € 50,000
    </text>
  </g>
  <g id="field-10" transform="rotate(90,150,330)">
    <rect x="60" y="240" width="180" height="180" class="field-bg"/>
    <rect x="60" y="360" width="180" height="60" class="strip-chance"/>
    <rect x="60" y="240" width="180" height="180" class="field-border"/>
    <text x="150" y="338" class="t-chance-wm" text-anchor="middle">
      ?
    </text>
    <text x="150" y="284" class="t-chance"    text-anchor="middle">
      CHANCE
    </text>
  </g>
  <!-- ═══ Top row (left to right) ═══ -->
  <g id="field-12" transform="rotate(0,330,150)">
    <rect x="240" y="60" width="180" height="180" class="field-bg"/>
    <rect x="240" y="180" width="180" height="60" class="strip-pickup"/>
    <rect x="240" y="60" width="180" height="180" class="field-border"/>
    <text x="330" y="91.5" class="t-field-name" text-anchor="middle">
      Main Station
    </text>
    <text x="330" y="108.5" class="t-field-name" text-anchor="middle">
      Ticket Center
    </text>
    <line x1="250" y1="130" x2="410" y2="130" class="divider"/>
    <line x1="330" y1="134" x2="330" y2="170" class="divider"/>
    <text x="290" y="146" class="t-label"  text-anchor="middle">
      Contract
    </text>
    <text x="290" y="160" class="t-amount" text-anchor="middle">
      € 100,000
    </text>
    <text x="370" y="146" class="t-label"  text-anchor="middle">
      PICKUP
    </text>
    <text x="370" y="160" class="t-amount" text-anchor="middle">
      € 20,000
    </text>
  </g>
  <g id="field-13" transform="rotate(0,510,150)">
    <rect x="420" y="60" width="180" height="180" class="field-bg"/>
    <rect x="420" y="180" width="180" height="60" class="strip-deposit"/>
    <rect x="420" y="60" width="180" height="180" class="field-border"/>
    <text x="510" y="91.5" class="t-field-name" text-anchor="middle">
      Golden Goose
    </text>
    <text x="510" y="108.5" class="t-field-name" text-anchor="middle">
      Jewelry
    </text>
    <line x1="430" y1="130" x2="590" y2="130" class="divider"/>
    <line x1="510" y1="134" x2="510" y2="170" class="divider"/>
    <text x="470" y="146" class="t-label"  text-anchor="middle">
      Contract
    </text>
    <text x="470" y="160" class="t-amount" text-anchor="middle">
      € 150,000
    </text>
    <text x="550" y="146" class="t-label"  text-anchor="middle">
      DEPOSIT
    </text>
    <text x="550" y="160" class="t-amount" text-anchor="middle">
      € 30,000
    </text>
  </g>
  <g id="field-14" transform="rotate(0,690,150)">
    <rect x="600" y="60" width="180" height="180" class="field-bg"/>
    <rect x="600" y="180" width="180" height="60" class="strip-deposit"/>
    <rect x="600" y="60" width="180" height="180" class="field-border"/>
    <text x="690" y="91.5" class="t-field-name" text-anchor="middle">
      Harbor Trade
    </text>
    <text x="690" y="108.5" class="t-field-name" text-anchor="middle">
      Bank
    </text>
    <line x1="610" y1="130" x2="770" y2="130" class="divider"/>
    <line x1="690" y1="134" x2="690" y2="170" class="divider"/>
    <text x="650" y="146" class="t-label"  text-anchor="middle">
      Contract
    </text>
    <text x="650" y="160" class="t-amount" text-anchor="middle">
      € 300,000
    </text>
    <text x="730" y="146" class="t-label"  text-anchor="middle">
      DEPOSIT
    </text>
    <text x="730" y="160" class="t-amount" text-anchor="middle">
      € 70,000
    </text>
  </g>
  <g id="field-15" transform="rotate(0,870,150)">
    <rect x="780" y="60" width="180" height="180" class="field-bg"/>
    <rect x="780" y="180" width="180" height="60" class="strip-chance"/>
    <rect x="780" y="60" width="180" height="180" class="field-border"/>
    <text x="870" y="158" class="t-chance-wm" text-anchor="middle">
      ?
    </text>
    <text x="870" y="104" class="t-chance"    text-anchor="middle">
      CHANCE
    </text>
  </g>
  <!-- ═══ Right column (top to bottom) ═══ -->
  <g id="field-17" transform="rotate(270,1050,330)">
    <rect x="960" y="240" width="180" height="180" class="field-bg"/>
    <rect x="960" y="360" width="180" height="60" class="strip-deposit"/>
    <rect x="960" y="240" width="180" height="180" class="field-border"/>
    <text x="1050" y="271.5" class="t-field-name" text-anchor="middle">
      Green Garden
    </text>
    <text x="1050" y="288.5" class="t-field-name" text-anchor="middle">
      Pharmacy
    </text>
    <line x1="970" y1="310" x2="1130" y2="310" class="divider"/>
    <line x1="1050" y1="314" x2="1050" y2="350" class="divider"/>
    <text x="1010" y="326" class="t-label"  text-anchor="middle">
      Contract
    </text>
    <text x="1010" y="340" class="t-amount" text-anchor="middle">
      € 90,000
    </text>
    <text x="1090" y="326" class="t-label"  text-anchor="middle">
      DEPOSIT
    </text>
    <text x="1090" y="340" class="t-amount" text-anchor="middle">
      € 15,000
    </text>
  </g>
  <g id="field-18" transform="rotate(270,1050,510)">
    <rect x="960" y="420" width="180" height="180" class="field-bg"/>
    <rect x="960" y="540" width="180" height="60" class="strip-pickup"/>
    <rect x="960" y="420" width="180" height="180" class="field-border"/>
    <text x="1050" y="451.5" class="t-field-name" text-anchor="middle">
      Jackpot
    </text>
    <text x="1050" y="468.5" class="t-field-name" text-anchor="middle">
      Electronics
    </text>
    <line x1="970" y1="490" x2="1130" y2="490" class="divider"/>
    <line x1="1050" y1="494" x2="1050" y2="530" class="divider"/>
    <text x="1010" y="506" class="t-label"  text-anchor="middle">
      Contract
    </text>
    <text x="1010" y="520" class="t-amount" text-anchor="middle">
      € 210,000
    </text>
    <text x="1090" y="506" class="t-label"  text-anchor="middle">
      PICKUP
    </text>
    <text x="1090" y="520" class="t-amount" text-anchor="middle">
      € 45,000
    </text>
  </g>
  <g id="field-19" transform="rotate(270,1050,690)">
    <rect x="960" y="600" width="180" height="180" class="field-bg"/>
    <rect x="960" y="720" width="180" height="60" class="strip-deposit"/>
    <rect x="960" y="600" width="180" height="180" class="field-border"/>
    <text x="1050" y="631.5" class="t-field-name" text-anchor="middle">
      Capital
    </text>
    <text x="1050" y="648.5" class="t-field-name" text-anchor="middle">
      Corner Bank
    </text>
    <line x1="970" y1="670" x2="1130" y2="670" class="divider"/>
    <line x1="1050" y1="674" x2="1050" y2="710" class="divider"/>
    <text x="1010" y="686" class="t-label"  text-anchor="middle">
      Contract
    </text>
    <text x="1010" y="700" class="t-amount" text-anchor="middle">
      € 340,000
    </text>
    <text x="1090" y="686" class="t-label"  text-anchor="middle">
      DEPOSIT
    </text>
    <text x="1090" y="700" class="t-amount" text-anchor="middle">
      € 80,000
    </text>
  </g>
  <g id="field-20" transform="rotate(270,1050,870)">
    <rect x="960" y="780" width="180" height="180" class="field-bg"/>
    <rect x="960" y="900" width="180" height="60" class="strip-chance"/>
    <rect x="960" y="780" width="180" height="180" class="field-border"/>
    <text x="1050" y="878" class="t-chance-wm" text-anchor="middle">
      ?
    </text>
    <text x="1050" y="824" class="t-chance"    text-anchor="middle">
      CHANCE
    </text>
  </g>
  <!-- ═══ Center area ═══ -->
  <rect x="240" y="240" width="720" height="720" class="center-area"/>
  <rect x="252" y="252" width="696" height="696" class="center-border" rx="4"/>
  <rect x="258" y="258" width="684" height="684" class="center-deco"   rx="2"/>
  <text x="600" y="410" class="t-center-h1"  text-anchor="middle">
    VAULT RUN
  </text>
  <line x1="400" y1="426" x2="800" y2="426" class="center-rule"/>
  <text x="600" y="448" class="t-center-sub" text-anchor="middle">
    The Cash Logistics Board Game
  </text>
  <!-- ═══ Player tokens ═══ -->
  <g id="player-1" class="player-token" transform="translate(628.5,1110.0)">
    <circle cx="0" cy="0" r="17.5" style="fill:#C0392B;stroke:#F5F2EA;stroke-width:1.5"/>
    <use href="#truck-icon" width="640" height="640" transform="translate(-10.94,-11.48) scale(0.0342)" style="fill:#F5F2EA"/>
  </g>
  <g id="player-2" class="player-token" transform="translate(669.5,1110.0)">
    <circle cx="0" cy="0" r="17.5" style="fill:#27AE60;stroke:#F5F2EA;stroke-width:1.5"/>
    <use href="#truck-icon" width="640" height="640" transform="translate(-10.94,-11.48) scale(0.0342)" style="fill:#F5F2EA"/>
  </g>
  <g id="player-3" class="player-token" transform="translate(710.5,1110.0)">
    <circle cx="0" cy="0" r="17.5" style="fill:#2471A3;stroke:#F5F2EA;stroke-width:1.5"/>
    <use href="#truck-icon" width="640" height="640" transform="translate(-10.94,-11.48) scale(0.0342)" style="fill:#F5F2EA"/>
  </g>
  <g id="player-4" class="player-token" transform="translate(751.5,1110.0)">
    <circle cx="0" cy="0" r="17.5" style="fill:#7D3C98;stroke:#F5F2EA;stroke-width:1.5"/>
    <use href="#truck-icon" width="640" height="640" transform="translate(-10.94,-11.48) scale(0.0342)" style="fill:#F5F2EA"/>
  </g>
  <line x1="0" y1="52" x2="0" y2="35" class="dim-ext"/>
  <line x1="60" y1="52" x2="60" y2="35" class="dim-ext"/>
  <line x1="0" y1="45" x2="60" y2="45" marker-start="url(#dim-arrow)" marker-end="url(#dim-arrow)" class="dim-line"/>
  <rect x="13" y="38.5" width="34" height="13" class="dim-bg"/>
  <text x="30" y="49" text-anchor="middle" class="dim-label">
    60
  </text>
  <line x1="52" y1="0" x2="35" y2="0" class="dim-ext"/>
  <line x1="52" y1="60" x2="35" y2="60" class="dim-ext"/>
  <line x1="45" y1="0" x2="45" y2="60" marker-start="url(#dim-arrow)" marker-end="url(#dim-arrow)" class="dim-line"/>
  <rect x="28" y="23.5" width="34" height="13" class="dim-bg"/>
  <text x="45" y="34" text-anchor="middle" class="dim-label">
    60
  </text>
  <line x1="968" y1="960" x2="1175" y2="960" class="dim-ext"/>
  <line x1="968" y1="1140" x2="1175" y2="1140" class="dim-ext"/>
  <line x1="1165" y1="960" x2="1165" y2="1140" marker-start="url(#dim-arrow)" marker-end="url(#dim-arrow)" class="dim-line"/>
  <rect x="1148" y="1043.5" width="34" height="13" class="dim-bg"/>
  <text x="1165" y="1054" text-anchor="middle" class="dim-label">
    180
  </text>
  <line x1="968" y1="960" x2="1210" y2="960" class="dim-ext"/>
  <line x1="968" y1="1030" x2="1210" y2="1030" class="dim-ext"/>
  <line x1="1200" y1="960" x2="1200" y2="1030" marker-start="url(#dim-arrow)" marker-end="url(#dim-arrow)" class="dim-line"/>
  <rect x="1183" y="988.5" width="34" height="13" class="dim-bg"/>
  <text x="1200" y="999" text-anchor="middle" class="dim-label">
    70
  </text>
  <line x1="968" y1="1080" x2="1245" y2="1080" class="dim-ext"/>
  <line x1="968" y1="1140" x2="1245" y2="1140" class="dim-ext"/>
  <line x1="1235" y1="1080" x2="1235" y2="1140" marker-start="url(#dim-arrow)" marker-end="url(#dim-arrow)" class="dim-line"/>
  <rect x="1218" y="1103.5" width="34" height="13" class="dim-bg"/>
  <text x="1235" y="1114" text-anchor="middle" class="dim-label">
    60
  </text>
  <line x1="1148" y1="60" x2="1280" y2="60" class="dim-ext"/>
  <line x1="1148" y1="1140" x2="1280" y2="1140" class="dim-ext"/>
  <line x1="1270" y1="60" x2="1270" y2="1140" marker-start="url(#dim-arrow)" marker-end="url(#dim-arrow)" class="dim-line"/>
  <rect x="1253" y="593.5" width="34" height="13" class="dim-bg"/>
  <text x="1270" y="604" text-anchor="middle" class="dim-label">
    1080
  </text>
  <line x1="780" y1="968" x2="780" y2="1185" class="dim-ext"/>
  <line x1="960" y1="968" x2="960" y2="1185" class="dim-ext"/>
  <line x1="780" y1="1175" x2="960" y2="1175" marker-start="url(#dim-arrow)" marker-end="url(#dim-arrow)" class="dim-line"/>
  <rect x="853" y="1168.5" width="34" height="13" class="dim-bg"/>
  <text x="870" y="1179" text-anchor="middle" class="dim-label">
    180
  </text>
  <line x1="60" y1="68" x2="60" y2="1215" class="dim-ext"/>
  <line x1="1140" y1="68" x2="1140" y2="1215" class="dim-ext"/>
  <line x1="60" y1="1205" x2="1140" y2="1205" marker-start="url(#dim-arrow)" marker-end="url(#dim-arrow)" class="dim-line"/>
  <rect x="583" y="1198.5" width="34" height="13" class="dim-bg"/>
  <text x="600" y="1209" text-anchor="middle" class="dim-label">
    1080
  </text>
  <line x1="611" y1="1118" x2="611" y2="1162.5" class="dim-ext"/>
  <line x1="646" y1="1118" x2="646" y2="1162.5" class="dim-ext"/>
  <line x1="611" y1="1152.5" x2="646" y2="1152.5" marker-start="url(#dim-arrow)" marker-end="url(#dim-arrow)" class="dim-line"/>
  <rect x="611.5" y="1146" width="34" height="13" class="dim-bg"/>
  <text x="628.5" y="1156.5" text-anchor="middle" class="dim-label">
    ∅ 35
  </text>
</svg>